<?xml version="1.0" standalone="no"?>
<!DOCTYPE svg PUBLIC "-//W3C//DTD SVG 20010904//EN"
 "http://www.w3.org/TR/2001/REC-SVG-20010904/DTD/svg10.dtd">
<svg version="1.0" xmlns="http://www.w3.org/2000/svg"
 width="541.000000pt" height="165.000000pt" viewBox="0 0 541.000000 165.000000"
 preserveAspectRatio="xMidYMid meet">
<metadata>
Created by potrace 1.16, written by Peter Selinger 2001-2019
</metadata>
<g transform="translate(0.000000,165.000000) scale(0.100000,-0.100000)"
fill="#000000" stroke="none">
<path d="M3746 1550 c-4 -24 -12 -32 -36 -37 l-31 -6 20 -21 c17 -18 19 -28
12 -54 -11 -37 -8 -39 26 -12 25 20 25 20 51 0 30 -24 36 -21 23 14 -6 14 -8
26 -5 26 2 0 33 -12 67 -26 73 -31 121 -80 141 -144 34 -111 94 -214 159 -277
53 -52 66 -70 71 -105 4 -24 20 -84 36 -133 36 -113 45 -192 31 -273 -8 -49
-16 -68 -36 -83 -44 -36 -28 -59 41 -59 26 0 39 7 56 30 l22 30 12 -29 c16
-39 51 -44 265 -39 160 3 166 4 229 34 79 38 127 85 166 162 28 56 29 62 34
253 l5 196 29 37 c36 48 82 76 124 76 17 0 32 3 32 7 0 3 -11 25 -25 48 -39
68 -142 94 -248 64 -49 -13 -115 -73 -138 -124 -25 -54 -24 -160 2 -255 26
-96 35 -241 19 -299 -12 -46 -63 -107 -80 -96 -6 3 -10 47 -10 98 0 107 -21
231 -49 285 -25 50 -73 96 -136 131 -28 16 -56 35 -62 43 -7 7 -14 49 -17 93
-5 64 -13 94 -40 150 -19 39 -40 90 -48 114 -7 25 -18 46 -24 48 -6 2 -18 -15
-27 -37 -12 -32 -21 -40 -40 -40 -13 0 -30 -7 -38 -16 -7 -8 -30 -24 -52 -35
-35 -18 -39 -24 -35 -52 3 -18 8 -40 13 -49 6 -15 2 -18 -30 -18 -55 0 -70 13
-109 93 -19 40 -55 95 -80 121 -37 41 -49 47 -70 42 -17 -4 -48 3 -92 21 -66
27 -66 27 -44 45 l22 18 -23 0 c-33 0 -46 11 -54 43 -9 36 -21 34 -29 -3z"/>
<path d="M800 1119 c-69 -10 -136 -23 -149 -27 l-24 -8 28 -26 28 -27 -26 -93
c-14 -51 -31 -118 -38 -148 -18 -90 -20 -96 -30 -78 -4 8 -15 37 -25 64 -9 27
-29 79 -45 116 -40 92 -40 149 2 187 20 19 27 31 19 36 -15 9 -355 -5 -372
-16 -11 -7 -10 -11 2 -19 8 -5 22 -10 31 -10 8 0 26 -12 40 -26 23 -25 24 -27
27 -272 4 -272 0 -297 -48 -313 -16 -6 -30 -17 -30 -25 0 -12 24 -13 142 -8
79 3 147 10 151 14 11 9 -6 25 -57 53 -44 25 -60 59 -77 169 -8 54 -7 79 5
128 9 34 16 96 16 138 0 46 4 72 9 67 5 -6 25 -48 44 -95 67 -162 124 -295
144 -335 11 -22 23 -52 27 -67 7 -31 32 -37 40 -10 3 9 8 40 11 67 8 63 52
240 70 280 7 17 21 48 31 70 l18 40 7 -100 c4 -55 10 -150 14 -211 l8 -111
-62 -34 c-35 -19 -61 -38 -59 -44 3 -10 250 -10 296 0 34 8 26 31 -16 43 -21
6 -47 20 -58 31 -20 18 -21 29 -20 267 1 242 2 250 24 281 12 17 32 35 43 38
22 7 21 29 -2 32 -8 1 -70 -7 -139 -18z"/>
<path d="M2689 1085 c-13 -30 -26 -55 -30 -55 -3 0 -14 10 -25 21 -28 32 -76
49 -137 49 -65 0 -101 -12 -181 -59 -53 -32 -65 -46 -93 -101 -66 -133 -85
-292 -49 -402 24 -74 101 -143 194 -174 58 -20 69 -21 119 -9 31 7 67 22 82
32 28 21 79 93 113 161 19 37 20 45 8 52 -20 13 -33 8 -46 -19 -14 -27 -79
-88 -114 -106 -48 -24 -130 -46 -148 -41 -36 12 -78 64 -89 113 -7 26 -15 118
-18 203 -7 182 -1 198 87 250 70 41 114 37 194 -16 l58 -39 -54 -7 c-40 -6
-61 -15 -77 -34 -61 -69 18 -179 110 -153 56 15 93 52 106 106 7 27 16 64 21
83 5 19 12 72 16 118 5 69 4 82 -8 82 -9 0 -25 -24 -39 -55z"/>
<path d="M3505 1030 c-3 -5 5 -25 19 -43 21 -27 26 -45 26 -90 l0 -57 -42 22
c-54 28 -105 26 -173 -7 -42 -20 -62 -38 -83 -73 -25 -44 -27 -55 -27 -162 0
-126 12 -162 67 -203 57 -42 186 -29 234 24 l19 21 6 -24 c5 -21 10 -23 69
-21 112 3 142 21 73 44 -21 6 -43 16 -49 20 -24 19 -35 251 -20 402 l8 78 54
30 c30 17 54 35 54 40 0 12 -227 12 -235 -1z m-21 -219 c17 -11 39 -34 49 -51
18 -29 18 -33 3 -49 -9 -10 -35 -26 -57 -36 -48 -22 -66 -12 -48 28 14 32 29
35 29 7 0 -24 13 -26 34 -4 18 17 7 50 -20 61 -63 24 -133 -94 -79 -133 25
-18 96 -18 121 1 29 22 34 18 34 -29 0 -36 -6 -50 -40 -89 -73 -82 -144 -84
-180 -5 -29 65 -25 117 15 206 55 118 76 132 139 93z"/>
<path d="M1983 998 c-20 -25 -21 -45 -5 -78 15 -31 15 -33 -3 -46 -10 -8 -26
-14 -34 -13 -11 0 -12 2 -3 6 6 2 12 12 12 20 0 12 -8 14 -37 9 -21 -3 -66 -6
-101 -6 l-62 0 6 -26 7 -27 -29 22 c-50 37 -94 38 -167 3 -37 -17 -73 -42 -86
-60 -38 -54 -53 -194 -27 -255 26 -61 101 -112 171 -117 54 -4 65 0 102 34
l38 34 -3 -97 c-4 -164 -7 -175 -55 -207 -63 -43 -74 -45 -132 -28 -47 13 -55
19 -65 50 -12 36 -5 110 12 132 14 17 39 15 67 -7 l23 -18 -32 5 c-36 5 -50
-8 -50 -49 0 -30 28 -59 57 -59 23 0 83 62 83 86 0 47 -50 93 -101 94 -95 0
-134 -47 -127 -154 6 -99 49 -139 162 -152 52 -6 63 -4 123 27 36 18 80 51 99
71 39 43 41 65 23 228 -5 52 -12 154 -14 225 -5 131 3 178 30 189 15 5 90 -27
118 -52 20 -17 24 -101 6 -119 -8 -8 -8 -20 -2 -40 15 -43 1 -138 -26 -174
-12 -17 -20 -33 -17 -36 4 -4 100 5 129 13 4 1 18 2 32 3 27 1 34 25 12 38 -8
4 -22 21 -32 36 -16 26 -17 44 -12 198 l7 169 -40 0 c-49 0 -56 25 -10 35 17
4 38 18 46 31 15 22 15 26 0 49 -12 18 -25 25 -50 25 -18 0 -38 -6 -43 -12z
m-296 -175 c99 -107 105 -183 23 -277 -95 -108 -156 -70 -167 105 -7 102 11
159 56 184 39 21 59 18 88 -12z"/>
<path d="M2901 897 c-52 -20 -106 -71 -131 -124 -19 -41 -22 -59 -17 -124 7
-104 33 -160 88 -192 132 -76 225 -48 293 89 35 70 36 174 2 254 -19 46 -31
59 -67 77 -56 28 -124 36 -168 20z m81 -52 c38 -15 54 -42 89 -142 25 -73 24
-90 -7 -149 -29 -57 -58 -84 -88 -84 -28 1 -116 86 -127 124 -11 36 -12 160
-2 169 3 4 16 -10 27 -30 18 -32 28 -39 59 -41 52 -4 89 33 85 85 -2 30 -8 38
-30 44 -55 14 -89 -12 -67 -52 12 -24 45 -21 41 4 -2 9 2 17 8 17 18 0 7 -42
-13 -54 -15 -9 -22 -7 -38 13 -23 29 -25 68 -2 93 19 22 21 22 65 3z"/>
<path d="M3845 896 c-45 -20 -102 -81 -126 -134 -18 -38 -21 -58 -16 -113 6
-74 28 -124 79 -182 39 -45 87 -59 150 -45 72 15 164 90 152 121 -9 24 -27 21
-55 -9 -29 -31 -90 -64 -120 -64 -11 0 -33 13 -48 29 -28 30 -56 104 -46 121
4 6 56 8 130 6 l123 -5 10 55 c24 140 -38 234 -153 234 -27 -1 -63 -7 -80 -14z
m114 -37 l31 -11 0 -78 c0 -44 -3 -81 -7 -83 -5 -3 -48 -8 -97 -12 l-88 -8 7
34 c4 18 11 40 15 49 4 8 14 31 23 51 12 28 53 62 83 69 1 0 15 -5 33 -11z"/>
<path d="M1093 889 c-17 -5 -41 -21 -52 -35 -34 -44 -23 -124 18 -124 33 0 31
-13 -4 -37 -39 -26 -65 -69 -65 -107 0 -38 44 -129 76 -159 53 -49 100 -44
194 20 25 17 25 17 8 -3 -10 -11 -18 -24 -18 -27 0 -4 38 -7 85 -7 69 0 85 3
85 15 0 8 -16 22 -36 30 -35 14 -36 16 -30 57 3 24 9 88 12 143 6 98 6 102
-24 161 -19 38 -40 64 -57 72 -30 14 -145 14 -192 1z m128 -200 c41 -20 74
-73 67 -107 -4 -21 -117 -112 -139 -112 -40 0 -70 101 -49 164 11 33 51 76 72
76 5 0 27 -9 49 -21z"/>
</g>
</svg>
